<mxfile host="app.diagrams.net" modified="2024-06-25T12:58:06.431Z" agent="Mozilla/5.0 (Windows NT 10.0; Win64; x64) AppleWebKit/537.36 (KHTML, like Gecko) Chrome/126.0.0.0 Safari/537.36 Edg/126.0.0.0" etag="sCXxaaj4YejV5BnX62nu" version="24.6.2" type="github">
  <diagram name="Página-1" id="28DYMGYW-lTGbGgKYK9i">
    <mxGraphModel dx="2610" dy="939" grid="1" gridSize="10" guides="1" tooltips="1" connect="1" arrows="1" fold="1" page="1" pageScale="1" pageWidth="827" pageHeight="1169" math="0" shadow="0">
      <root>
        <mxCell id="0" />
        <mxCell id="1" parent="0" />
        <mxCell id="Kg6lwI2vOc3HsI6Ho88o-5" value="" style="edgeStyle=orthogonalEdgeStyle;rounded=0;orthogonalLoop=1;jettySize=auto;html=1;" edge="1" parent="1" source="Kg6lwI2vOc3HsI6Ho88o-1" target="Kg6lwI2vOc3HsI6Ho88o-4">
          <mxGeometry relative="1" as="geometry" />
        </mxCell>
        <mxCell id="Kg6lwI2vOc3HsI6Ho88o-1" value="OTMS AI" style="rounded=1;whiteSpace=wrap;html=1;fillColor=#d5e8d4;strokeColor=#82b366;strokeWidth=4;fontSize=18;" vertex="1" parent="1">
          <mxGeometry x="-60" y="60" width="120" height="60" as="geometry" />
        </mxCell>
        <mxCell id="Kg6lwI2vOc3HsI6Ho88o-2" value="Mantenimiento Predictivo" style="rounded=0;whiteSpace=wrap;html=1;fontSize=14;fillColor=#dae8fc;strokeColor=#6c8ebf;" vertex="1" parent="1">
          <mxGeometry x="-357" y="170" width="120" height="60" as="geometry" />
        </mxCell>
        <mxCell id="Kg6lwI2vOc3HsI6Ho88o-3" value="Optimización rendimiento Hardware" style="rounded=0;whiteSpace=wrap;html=1;fontSize=14;fillColor=#e1d5e7;strokeColor=#9673a6;" vertex="1" parent="1">
          <mxGeometry x="260" y="170" width="120" height="60" as="geometry" />
        </mxCell>
        <mxCell id="Kg6lwI2vOc3HsI6Ho88o-4" value="Detección de anomalías y naturaleza" style="rounded=0;whiteSpace=wrap;html=1;fontSize=14;fillColor=#f8cecc;strokeColor=#b85450;" vertex="1" parent="1">
          <mxGeometry x="-60" y="170" width="120" height="60" as="geometry" />
        </mxCell>
        <mxCell id="Kg6lwI2vOc3HsI6Ho88o-9" value="" style="endArrow=classic;html=1;rounded=0;exitX=0.5;exitY=1;exitDx=0;exitDy=0;entryX=0.479;entryY=0.005;entryDx=0;entryDy=0;entryPerimeter=0;" edge="1" parent="1" target="Kg6lwI2vOc3HsI6Ho88o-2">
          <mxGeometry width="50" height="50" relative="1" as="geometry">
            <mxPoint y="120" as="sourcePoint" />
            <mxPoint x="-298" y="170" as="targetPoint" />
            <Array as="points">
              <mxPoint y="150" />
              <mxPoint x="-300" y="150" />
            </Array>
          </mxGeometry>
        </mxCell>
        <mxCell id="Kg6lwI2vOc3HsI6Ho88o-11" value="" style="edgeStyle=none;orthogonalLoop=1;jettySize=auto;html=1;rounded=0;entryX=0.5;entryY=0;entryDx=0;entryDy=0;" edge="1" parent="1" target="Kg6lwI2vOc3HsI6Ho88o-3">
          <mxGeometry width="80" relative="1" as="geometry">
            <mxPoint y="120" as="sourcePoint" />
            <mxPoint x="30" y="160" as="targetPoint" />
            <Array as="points">
              <mxPoint y="150" />
              <mxPoint x="320" y="150" />
            </Array>
          </mxGeometry>
        </mxCell>
        <mxCell id="Kg6lwI2vOc3HsI6Ho88o-12" value="Planificación de mantenimiento preventivo" style="rounded=0;whiteSpace=wrap;html=1;fontSize=14;fillColor=#dae8fc;strokeColor=#6c8ebf;" vertex="1" parent="1">
          <mxGeometry x="-670" y="170" width="120" height="60" as="geometry" />
        </mxCell>
        <mxCell id="Kg6lwI2vOc3HsI6Ho88o-14" value="&lt;h4 style=&quot;text-align: justify;&quot;&gt;Objetivo:&lt;/h4&gt;&lt;h4 style=&quot;text-align: justify; line-height: 100%;&quot;&gt;Predecir fallas o necesidades de mantenimiento de los equipos del sistema de control antes de que ocurran.&lt;/h4&gt;&lt;h4 style=&quot;text-align: justify; line-height: 100%;&quot;&gt;Beneficio:&lt;/h4&gt;&lt;h4 style=&quot;text-align: justify;&quot;&gt;Reducir el tiempo de inactividad no planificado y los costos de reparación, mejorando la eficiencia operativa.&lt;/h4&gt;" style="rounded=0;whiteSpace=wrap;html=1;fontSize=12;fillColor=#dae8fc;strokeColor=#6c8ebf;align=right;verticalAlign=middle;" vertex="1" parent="1">
          <mxGeometry x="-750" y="300" width="280" height="150" as="geometry" />
        </mxCell>
        <mxCell id="Kg6lwI2vOc3HsI6Ho88o-15" value="" style="edgeStyle=elbowEdgeStyle;orthogonalLoop=1;jettySize=auto;html=1;rounded=0;elbow=vertical;entryX=0.5;entryY=0;entryDx=0;entryDy=0;" edge="1" parent="1" target="Kg6lwI2vOc3HsI6Ho88o-12">
          <mxGeometry width="80" relative="1" as="geometry">
            <mxPoint x="-300" y="150" as="sourcePoint" />
            <mxPoint x="-450" y="130" as="targetPoint" />
            <Array as="points">
              <mxPoint x="-470" y="150" />
            </Array>
          </mxGeometry>
        </mxCell>
        <mxCell id="Kg6lwI2vOc3HsI6Ho88o-16" value="Generación de informes con LN" style="rounded=0;whiteSpace=wrap;html=1;fontSize=14;fillColor=#e1d5e7;strokeColor=#9673a6;" vertex="1" parent="1">
          <mxGeometry x="567" y="170" width="120" height="60" as="geometry" />
        </mxCell>
        <mxCell id="Kg6lwI2vOc3HsI6Ho88o-17" value="" style="edgeStyle=elbowEdgeStyle;orthogonalLoop=1;jettySize=auto;html=1;rounded=0;elbow=vertical;entryX=0.5;entryY=0;entryDx=0;entryDy=0;" edge="1" parent="1" target="Kg6lwI2vOc3HsI6Ho88o-16">
          <mxGeometry width="80" relative="1" as="geometry">
            <mxPoint x="320" y="150" as="sourcePoint" />
            <mxPoint x="630" y="170" as="targetPoint" />
            <Array as="points">
              <mxPoint x="490" y="150" />
            </Array>
          </mxGeometry>
        </mxCell>
        <mxCell id="Kg6lwI2vOc3HsI6Ho88o-19" value="&lt;h4 style=&quot;text-align: justify;&quot;&gt;Objetivo:&lt;/h4&gt;&lt;p style=&quot;text-align: justify;&quot;&gt;Identificar patrones de uso y rendimiento para optimizar la operación y el mantenimiento del hardware.&lt;/p&gt;&lt;h4 style=&quot;text-align: justify;&quot;&gt;Beneficio:&lt;/h4&gt;&lt;h4 style=&quot;text-align: justify;&quot;&gt;Mejorar la eficiencia y prolongar la vida útil del hardware.&lt;/h4&gt;" style="rounded=0;whiteSpace=wrap;html=1;fontSize=12;fillColor=#dae8fc;strokeColor=#6c8ebf;align=right;verticalAlign=middle;" vertex="1" parent="1">
          <mxGeometry x="-440" y="300" width="280" height="150" as="geometry" />
        </mxCell>
        <mxCell id="Kg6lwI2vOc3HsI6Ho88o-20" value="&lt;h4 style=&quot;text-align: justify;&quot;&gt;Objetivo:&lt;/h4&gt;&lt;p style=&quot;text-align: justify;&quot;&gt;Identificar patrones de uso y rendimiento del hardware de control para optimizar la operación y el mantenimiento del hardware.&lt;/p&gt;&lt;h4 style=&quot;text-align: justify;&quot;&gt;Beneficio:&lt;/h4&gt;&lt;h4 style=&quot;text-align: justify;&quot;&gt;Mejorar la eficiencia y prolongar la vida útil del hardware.&lt;/h4&gt;" style="rounded=0;whiteSpace=wrap;html=1;fontSize=12;fillColor=#dae8fc;strokeColor=#6c8ebf;align=right;verticalAlign=middle;" vertex="1" parent="1">
          <mxGeometry x="180" y="300" width="280" height="150" as="geometry" />
        </mxCell>
        <mxCell id="Kg6lwI2vOc3HsI6Ho88o-21" value="&lt;h4 style=&quot;text-align: justify;&quot;&gt;Objetivo:&lt;/h4&gt;&lt;p style=&quot;text-align: justify;&quot;&gt;Identificar patrones de uso y rendimiento para optimizar la operación y el mantenimiento del hardware.&lt;/p&gt;&lt;h4 style=&quot;text-align: justify;&quot;&gt;Beneficio:&lt;/h4&gt;&lt;h4 style=&quot;text-align: justify;&quot;&gt;Mejorar la eficiencia y prolongar la vida útil del hardware.&lt;/h4&gt;" style="rounded=0;whiteSpace=wrap;html=1;fontSize=12;fillColor=#dae8fc;strokeColor=#6c8ebf;align=right;verticalAlign=middle;" vertex="1" parent="1">
          <mxGeometry x="-130" y="300" width="280" height="150" as="geometry" />
        </mxCell>
        <mxCell id="Kg6lwI2vOc3HsI6Ho88o-22" value="&lt;h4 style=&quot;text-align: justify;&quot;&gt;Objetivo:&lt;/h4&gt;&lt;p style=&quot;text-align: justify;&quot;&gt;Identificar patrones de uso y rendimiento para optimizar la operación y el mantenimiento del hardware.&lt;/p&gt;&lt;h4 style=&quot;text-align: justify;&quot;&gt;Beneficio:&lt;/h4&gt;&lt;h4 style=&quot;text-align: justify;&quot;&gt;Mejorar la eficiencia y prolongar la vida útil del hardware.&lt;/h4&gt;" style="rounded=0;whiteSpace=wrap;html=1;fontSize=12;fillColor=#dae8fc;strokeColor=#6c8ebf;align=right;verticalAlign=middle;" vertex="1" parent="1">
          <mxGeometry x="490" y="300" width="280" height="150" as="geometry" />
        </mxCell>
      </root>
    </mxGraphModel>
  </diagram>
</mxfile>
